<svg xmlns="http://www.w3.org/2000/svg" width="1984" height="1403"><path fill="#573f97" d="M0 0h1984v1403H0Z"/><path fill="#10120e" d="M523 201h23l20 2 19 5 14 7 10 8 6 9 4 10 1 14-5 85-1 34-1 19-1 35 3 1 7 8 11 11 11 14 10 14 12 21 10 21 10 27 8 29 5 28 2 13h8l75-10 8 1 4 5 1 87 1 2 14 2 10 5 9 9 8 13 5 15 2 14v13l-2 14-5 15-7 11-8 9-11 7-15 5-1 2v48l-1 9-5 5-19 3-83 10-6 1 6 18 11 27 7 16 1 3v12l-4 8-9 10-12 10-16 10-4 2-1 3 6 27 2 21v22l-3 25-3 13 1 4 15 8 11 9 9 10 6 11 2 5 6 2 31 6 21 6 13 6 8 5 3 5v7l-7 8-16 8-20 6-27 6-38 6-49 5-49 3-31 1h-78l-60-2-52-4-35-4-37-6-32-8-13-5-13-7-4-5-1-2 1-9 5-5 10-6 13-5 24-6 28-5 26-3 1-11 4-13 12-25 10-23 5-17 2-14 1-17v-15l-15-7-11-8-8-8-10-15-8-19-9-31-15-57-9-38-2-9-6-4-13-5-10-5-9-7-7-6-8-11-5-10-4-13-2-16v-16l3-19 5-15 8-15 11-14 12-12 1-2-2-50-1-61 1-36 4-66 4-42 6-44 8-44 5-12 7-11 12-14 7-7 5-5 10-10 14-11 13-10 19-12 21-12 25-12 27-10 28-8 31-6Z"/><path fill="#ee8b22" d="M529 220h18l19 2 15 4 10 6 5 5 3 4 2 6v17l-4 52-2 37v82l16 15 10 12 12 18 9 15 14 27 11 27 7 24 5 25 3 23-4 2-90 15-16 3h-39l-5-1 1-5 8-10 4-8 1-4v-14l-3-5-5-3-4-1h-7l-6 3-3 4 1 6 3 3 7 1-1 6-6 10-9 6-8 3-4 1h-20l-11-4-9-7-5-6-4-7-2-1h-7l-3 1-1 4v7l3 6 6 8v2l-65-3-33-2h-7l-5 3-1 3-1 86-1 5-17 5-14 7-13 10-4 5-1 2v6l3 3h6l6-4 11-9 11-5 10-2h16l18 4 13 5 8 7 3 7 1 10-3 14-6 12-11 12-10 7-15 7-13 4-10 2h-23l-17-4-12-5-10-6-8-8-6-9-5-15-1-6v-25l4-17 9-19 9-12 9-10 6-5 4-8-1-12-2-17-1-39v-81l2-35 5-57 6-46 8-48 5-13 7-11 11-12 17-17 11-9 17-13 17-11 16-9 16-8 21-9 30-10 30-7 21-3Z"/><path fill="#fdc834" d="M1233 498h21l11 4 11 7 8 10 8 15 19 51 22 59 23 61 2 5 5-12 20-57 16-45 17-48 9-25 5-8 4-5 10-6 8-2h17l12 3 9 6 7 8 4 10 4 39 6 73 8 113 1 16v14l-3 10-6 8-5 4-8 4-10 2h-8l-9-2-10-6-6-9-3-8-2-15-8-119-18 53-11 31-10 25-7 11-9 10-8 6-9 4-11 2-14-1-10-4-10-8-8-10-9-17-18-49-23-63-3-8-7 122-1 20-2 14-5 10-7 6-8 3h-20l-10-3-9-6-6-9-2-6v-27l10-164 4-56 4-17 6-11 7-7 8-4Z"/><path fill="#fdc834" d="M1414 863h13l10 3 8 6 6 9 2 8-1 86-2 176-2 9-6 9-9 5-8 2h-18l-12-4-8-6-7-8-12-17-13-18-13-18-13-18-13-18-13-18-13-18-13-18-13-18-3-4-2 138-3 19-4 11-7 9-9 5-4 1h-16l-11-4-8-7-4-9-2-10v-32l1-155 1-54 3-12 4-8 5-6 10-6 7-2h19l12 5 11 8 11 13 13 19 12 16 13 19 12 16 13 19 12 16 13 19 12 16 9 13 1-158 4-13 9-10 8-4Z"/><path fill="#573f98" d="M770 626h6l1 1 1 40v40l-4 4-11 7-3 3h-2l-2 4-6 9-3 9-1 7v10l3 8v6l-3 8v11l4 11 7 11 10 8 9 5 1 1 1 26v24l-2 2-57 7-125 17-13 2h-6l-2-2 1-245 4-3 63-11 15-2 26-5 26-3 48-8Z"/><path fill="#573f98" d="M350 648h18l92 5 21 2h13l61 4 2 4v242l-1 3-6 1-65-5-55-4-18-2-61-4-2-1v-45l4-3 16-8 10-8 6-5 9-12 7-15 3-13v-13l-4-14-8-10-9-7-10-5-15-4-9-2v-72Z"/><path fill="#fdc834" d="M0 0h22l1 11v10l-2 19-4 17-7 18-6 10-1 50h7l6 4 4 6 1 9-3 8-6 9-3 9v16l3 8 6 10 1 3v11l-4 6-6 4-6 1v25l6 1 16 8 17 11 4 2 6-12 5-16 2-9 1-11v-10l-3-21-1-4v-8l3-6 6-5 3-1h12l6 4 4 6 1 4v71l-7 21-5 11 12 1v35l-20-2-14-3-11 10-14 9-12 6-13 4H3v52l21-1 16-3 16-6 14-8 8-6 5-2h8v36l-15 9-18 8-19 5-12 2-20 1-4-1v41l22 2h22l18-2 22-5 4-1v36l-5 2-23 4-10 1H19l-16-2 1 57 4-3 3-1h10l7 4 5 8v14l-4 7-5 4-7 2-7-1-6-3-1 112 6 2 10 5 16 5 10 2h28l18-3v36l-25 3H54l-19-2-20-5-11-4-1 226 10 1 14 4 17 8 13 9 7 6 2-13v-30l-3-30-6-48-1-10v-9l4-8 6-4 3-1h9l6 3 5 6 2 8v231l-3-3-13-22h-2l-9 11-12 10-13 8-14 6-12 3-10 1v40l6-1h16l16 3 13 5 14 8 11 9 11 14 1 2 1 53 2 14 1 7-8 16-11 13-5 3-9 1-8-4-6-7-1-3v-8l3-6 6-7 6-10 3-9 1-7v-11l-5-16-6-8-10-9-11-5-7-2H8l-4 1-1 41 4-1 9 3 6 7 2 5v7l-3 6-8 8-9 11-1 116H0Z"/><path fill="#fdc834" d="M1591 497h12l13 3 7 4h15l31-1h56l10 3 6 4 5 6 3 11v17l-3 10-6 8-8 5-6 2-60 1-35 1v15l-2 38 29-2 27-1h31l10 4 5 6 3 8 1 7v13l-2 9-5 8-7 6-5 2-7 1-52 2-26 2-1 53h105l9 3 6 4 5 8 2 9v12l-3 12-6 8-5 4-10 4-6 1-88 1h-54l-12-3-6-4-5-9-1-5-1-100-8-6-5-6-4-8-2-11 1-11 5-9 8-5 6-1V529l3-13 6-10 9-6Z"/><path fill="#fdc834" d="M1517 866h20l9 4 5 4 6 12 2 13-3 102v75l3 10 6 9 7 6 12 5 12 2h9l12-2 9-4 6-4 5-5 6-8 5-12 2-9 1-10-1-94v-67l3-9 7-8 8-4 3-1h18l10 4 8 6 6 9 4 10 2 11 1 11v135l-1 16-3 16-6 18-8 16-10 14-14 14-15 10-18 8-14 4-22 3h-18l-17-2-19-5-16-7-11-7-10-9-5-5-6-7-8-13-6-14-4-15-2-15V949l1-39 2-18 4-10 4-6 7-6Z"/><path fill="#ec8623" d="M324 853h7l1 53 4 2 2 1 64 6 33 3 35 2 67 5 22 1 24-3 76-11 4 1 7 18 5 13 13 29v10l-9 10-13 10-19 10-21 7-22 5-29 4-26 2h-43l-21-2-18-3-25-6-23-7-24-10-10-5h-8l-4 2-3 6v10l1 9-6-2-11-7-7-8-7-12-6-16-10-35-4-17-4-14-9-39-3-15v-5Z"/><path fill="#573f98" d="M1827 0h157v239l-8 1h-19l-26-2-7-1-7 20-8 15-8 10-7 8h-1l-1-144-2-14-6-18-8-14-11-13-11-9-14-8-6-3-3-6-5-21-1-6V7Z"/><path fill="#fdc834" d="m0 759 3 1v227l10 1 14 4 17 8 13 9 7 6 2-13v-30l-3-30-6-48-1-10v-9l4-8 6-4 3-1h9l6 3 5 6 2 8v231l-3-3-13-22h-2l-9 11-12 10-13 8-14 6-12 3-10 1v40l6-1h16l16 3 13 5 14 8 11 9 11 14 1 2 1 53 2 14 1 7-8 16-11 13-5 3-9 1-8-4-6-7-1-3v-8l3-6 6-7 6-10 3-9 1-7v-11l-5-16-6-8-10-9-11-5-7-2H8l-4 1-1 41 4-1 9 3 6 7 2 5v7l-3 6-8 8-9 11-1 116H0Z"/><path fill="#ef8d22" d="m388 1021 8 1 24 9 27 8 29 6 6 2v18l-3 21-5 21-7 19-8 16-9 16-1 9 4 5 15 9 14 14 4 8v11l-5 5-8 4-10 2h-35l-24-3-19-5-16-6-9-6-6-10v-18l5-15 12-25 7-16 5-15 4-19 1-9Z"/><path fill="#ed8922" d="m640 1034 4 1 6 25 1 8v35l-4 25-3 13v8l5 5 19 10 11 9 8 10 3 9-1 9-6 7-9 4-9 2-13 1h-19l-20-2-17-4-13-5-9-6-5-5-4-5-4-10-1-6v-12l3-18 4-21 2-19v-10l-3-21-5-15-3-6v-2l34-4 28-5Z"/><path fill="#2b1b11" d="M526 240h22l15 3 8 5 2 3v9l-6 9-7 7-13 10-19 12-22 12-25 12-34 14-37 13-23 7-29 6-8 1h-16l-9-3-3-3v-10l6-10 11-12 7-7 11-9 11-9 18-12 21-12 27-13 28-10 22-6 26-5Z"/><path fill="#fdc834" d="M1452 0h217l-2 5-10 15-7 9-9 10-4 5-8 7-11 9-2 1h-136l-11-12-9-15-6-16-2-10Z"/><path fill="#fdc834" d="M1827 0h35l-2 13v15l4 20 6 16 12 25 14 25 12 22 8 18 6 20 3 16 1 12 15 1 10 1 33 1v34l-8 1h-19l-26-2-7-1-7 20-8 15-8 10-7 8h-1l-1-144-2-14-6-18-8-14-11-13-11-9-14-8-6-3-3-6-5-21-1-6V7Z"/><path fill="#fdc834" d="M1648 1342h81l10 8 9 10 6 10 6 16 2 10v7h-145v-8l3-15 5-12 7-11 6-7Z"/><path fill="#fdc834" d="M9 1163h16l16 3 13 5 14 8 11 9 11 14 1 2 1 53 2 14 1 7-8 16-11 13-5 3-9 1-8-4-6-7-1-3v-8l3-6 6-7 6-10 3-9 1-7v-11l-5-16-6-8-10-9-11-5-7-2H8l-4 1-1 41 4-1 9 3 6 7 2 5v7l-3 6-8 8-9 11-1 116H0v-238Z"/><path fill="#573f98" d="M501 1050h36l4 4 6 15 3 13 1 8v19l-4 26-3 18-1 19-2 3-47 1-9-3-8-7-7-5 1-5 10-18 8-21 5-18 4-22 2-26Z"/><path fill="#fdc834" d="M124 0h136v7l-4 15-7 14-8 10-8 8-11 7-45 1-13 1-10-6-10-9-7-8-8-15-4-14Z"/><path fill="#fdc834" d="M1482 204h11l7 3 4 5 2 24 2 13 1 2 5-5 6-4 4-1h8l10 4 6 6 3-21 2-19 5-5 5-2h11l8 4 2 3v14l-2 15-7 19-4 17-1 12-2 3h-2l-2 6-9 6-10 1-8-3-5-4-3-4v-2h-2l-2 5-7 6-7 2-9-1-7-4-8-9-2-6 2-8v-16l-4-13-6-10-4-5v-2l11-4 5-3-1-7-4-3-6 1-5 6h-1v-8l5-6Z"/><path fill="#fdc834" d="M1332 204h11l7 3 4 5 2 24 2 13 1 2 5-5 6-4 4-1h8l10 4 6 6 3-21 2-19 5-5 5-2h11l8 4 2 3v14l-2 4-8 6-6 7-5 12-1 6v11l4 16 2 5-6 7-7 4-10 1-8-3-5-4-3-4v-2h-2l-2 5-7 6-7 2-9-1-7-4-8-9-6-15-5-21-3-21-1-21 5-6Z"/><path fill="#fdc834" d="M46 644h23l10 4 9 7 3 3v64l-9 7-10 4-10 2H51l-12-3-11-6-7-7-6-11-2-6-1-7v-8l3-14 5-10 9-10 9-6Z"/><path fill="#fcc834" d="m402 717 15 1 6 5 6 16 14 43 1 1 19-53 3-6h15l6 1v101l-2 2h-7l-7-2-1-2-1-62-15 44-5 15-3 3-6-1-3-6-14-46-4-13-1 63-11-1-6-2v-21l3-13v-13l-3-11v-42Z"/><path fill="#fdc834" d="M892 1342h68v17l-2 22-4 22H829l4-4 13-9 13-11 10-9 7-8 11-13Z"/><path fill="#fdc834" d="m1923 522 9 1 6 4 4 6 1 9-3 8-17 17-11 16-8 15-7 21-2 9v4l27 4h41l16-2h5v35l-14 2-12 1h-30l-26-3-9-2V548l11-12 4-5 11-8Z"/><path fill="#fdc834" d="M1937 0h47v128l-6-2-10-7-10-9-9-10-8-13-7-16-4-20V28l4-20Z"/><path fill="#573f98" d="M1486 0h142l-6 9-10 11-8 7-12 9-16 8-13 4-6 1h-24l-14-4-14-8-8-8-8-14-3-11Z"/><path fill="#f4a820" d="M796 720h7l8 4 8 9 5 11 3 14v19l-3 12-6 11-4 5-9 6-5 2h-15l-12-6-6-7-4-10v-11l2-2 10-3 1-1v-5l-9-4-4-5v-12l4-9 6-7 13-8Z"/><path fill="#fdc834" d="M978 0h34l3 28 4 17 6 16h-32v1281h-2V61l-4-1-5-18-3-18-1-13Z"/><path fill="#fcc838" d="m642 722 5 2v99l-2 2-11 1-5-5-10-17-13-24-4-7-1 57-7 1h-9V730l1-1 14-1 8 14 18 34 2 4 1-54 2-2Z"/><path fill="#fdc834" d="M1444 226h10l2 5h6l4-1 8 7 7 10 4 12 1 10-2 12-6 12-9 8-8 3-6 1h-15l-9-4-8-7-5-8-4-13v-15l4-12 7-9 7-6Z"/><path fill="#fcc834" d="M723 712h9v75l-3 9-6 11-9 8-10 4-5 1h-12l-10-3-8-7-5-11-2-8v-71l19-2 1 1 1 66 2 8 3 5 2 1h10l6-2 2-4 3-8 1-7 1-64 1-1Z"/><path fill="#fdc834" d="M1893 673h1l4 17 6 16 9 16 11 14 11 11 13 10 17 10 15 6 4 2v36l-17-5-17-7-18-10-16-12-12-11-11-12Z"/><path fill="#fdc834" d="M60 0h35l-1 10v16l3 17 5 14 6 12 10 13 2 4-10 11-10 16-7-6-11-14-8-13-8-17-5-18-2-13V5Z"/><path fill="#fdc834" d="M874 0h45l2 3 1 7-3 9-5 5-8 3-21 7-17 9-11 8-12 10h-41l1-6 6-9 14-15 11-9 13-9 14-8Z"/><path fill="#fdc834" d="m1893 840 8 6 17 13 16 10 23 12 21 8 6 2v36l-21-6-21-8-17-8-17-10-15-10Z"/><path fill="#fdc834" d="M1983 1190h1v36l-23 7-24 10-21 11-16 11-9 6 1-14 1-30 23-13 22-10 20-7 20-6Z"/><path fill="#fdc834" d="M502 727h10l30 3 3 2v19h-10l-14-2v21l20 2 1 1v18l-17-1-4-1v22l22 1 2 1v19l-1 1h-9l-32-3-2-3Z"/><path fill="#fdc834" d="m0 720 5 2 14 7 16 5 10 2h28l18-3v36l-25 3H54l-19-2-20-5-15-6Z"/><path fill="#fdc834" d="M1981 1088h3v34l-6 2-31 7-29 9-22 9-3 1v-38l36-12 32-8Z"/><path fill="#fdc834" d="M0 0h22l1 11v10l-2 19-4 17-7 18-6 10-1 50h7l6 4 4 6 1 9-3 8-6 9-3 9v16l3 8 6 10 1 3v11l-4 6-6 4-6 1v24H0Z"/><path fill="#fdc834" d="M1983 997h1v35l-43 5-48 5v-35l24-3Z"/><path fill="#10120e" d="M395 456h22l17 4 14 7 10 8 5 8v10l-3 6-3 2-6 1-8-2-15-6-14-4-7-1h-14l-16 4-6 3h-7l-2-3v-9l4-10 7-8 8-6 9-3Z"/><path fill="#fdc834" d="M1259 1342h44l11 13 9 10 8 7 7 7 11 9 14 11 4 4h-55l-27-27-9-11-13-16Z"/><path fill="#fdc834" d="M1127 1342h44l9 11 15 16 33 33v1h-49l-17-17-7-8-12-14-13-17Z"/><path fill="#fdc834" d="M100 1323h12l7 4 8 9 7 12 5 15 2 18-2 19-1 3h-36l3-13v-17l-4-12-7-9-4-5-1-10 3-8 6-5Z"/><path fill="#fdc834" d="M23 806h68v35H21l-7-3-4-5-2-5v-9l4-8 6-4Z"/><path fill="#10120e" d="M567 454h12l13 3 10 7 5 8 3 10-1 6-2 2-9-1-12-3h-14l-15 4-16 8-6 2-8-1-5-5-2-8 3-9 7-8 14-9 11-4Z"/><path fill="#fdc834" d="M1131 0h35l7 15 6 11 10 13 8 8 15 11 4 3h-55l-11-15-9-16-7-17-3-10Z"/><path fill="#fdc834" d="M1041 0h35l4 15 8 16 9 11 9 8 14 8 6 2v1h-59l-8-10-6-10-8-20-4-20Z"/><path fill="#fdc834" d="M336 1342h47l8 11 12 22 8 17 3 8v3h-37l-8-17-12-20-8-10-7-8-6-5Z"/><path fill="#fdc834" d="M1723 0h38l-7 17-11 21-11 17-4 6h-45l6-8 9-11 10-15 9-15Z"/><path fill="#fdc834" d="M1257 0h45l10 15 13 25 6 15 1 6h-36l-8-16-9-16-10-14-12-14Z"/><path fill="#573f98" d="M1681 1365h14l10 3 9 6 8 9 5 13 1 7h-77l1-9 4-11 7-9 9-6Z"/><path fill="#fdc834" d="M1837 1334h3l-2 6-7 17-6 21-4 25h-34l1-16 3-18 7-25 1-2 18-2 15-4Z"/><path fill="#fdc834" d="M1983 1329h1v74h-50l3-10 8-17 12-19 12-14Z"/><path fill="#573f98" d="m3 1022 8 1 12 5 14 9 12 11 4 5-7 11-8 9-14 10-12 5-9 1Z"/><path fill="#fdc834" d="M746 0h38l-2 6-7 15-6 18-5 22h-34l1-13 6-25 7-19Z"/><path fill="#fdc834" d="M257 1342h41l-7 11-4 9-2 10v10l2 14 1 7h-35l-2-10-1-9v-14l3-18Z"/><path fill="#fdc834" d="M286 0h34l1 2v24l-3 19-4 15-1 1h-37l3-9 4-13 2-11Z"/><path fill="#fdc834" d="M358 0h36l-2 9-7 24-6 28h-34l1-13 5-24 6-21Z"/><path fill="#fdc834" d="M548 0h36l-3 11-6 24-4 26h-35l3-25 5-24 3-11Z"/><path fill="#fdc834" d="M568 1342h36l-2 9-4 18-2 14-1 17-1 3h-34v-13l2-21 5-24Z"/><path fill="#fdc834" d="M1360 0h35v31l5 21 3 9h-37l-4-15-2-12-1-14V10Z"/><path fill="#fdc834" d="M469 0h35l5 46 1 15h-35Z"/><path fill="#fdc834" d="M445 1342h34l-2 17v26l2 18h-35l-2-13v-32l2-15Z"/><path fill="#fdc834" d="M1021 1342h35l2 9 1 8v31l-2 13h-35l2-14v-28Z"/><path fill="#10120e" d="m461 545 6 1 4 4v11l-7 8-10 7-11 5-11 3h-17l-13-4-11-6-10-9-2-4v-10l4-4 6-1 6 3 9 7 11 5 4 1h10l12-4 13-9Z"/><path fill="#10120e" d="M601 545h6l5 5 1 7-3 7-4 5-13 9-12 4-8 1h-10l-12-2-9-4-9-6-6-8-1-3v-7l3-5 2-2h7l11 9 10 5 5 1h9l10-3 9-6Z"/><path fill="#573f98" d="M159 0h67l-2 10-6 10-7 7-8 5-6 2h-12l-8-3-10-9-6-10-2-7Z"/><path fill="#fdc834" d="M0 0h22l1 11v10l-2 19-4 17-7 18-9 15H0Z"/><path fill="#fdc834" d="M1510 1342h92l-4 4-13 8-11 5-15 4-12 1-16-2-12-4-6-5-3-6Z"/><path fill="#fdc834" d="M11 575h10l7 4 5 8v14l-4 7-5 4-7 2-7-1-6-3-1 111-3-1V584l6-7Z"/><path fill="#fdc834" d="M178 1342h40l10 13 2 4v12l-5 7-6 3-9 1-7-3-8-9-14-21-3-5Z"/><path fill="#573f98" d="M1975 0h9v86l-7-6-7-11-5-15-1-5V30l4-16Z"/><path fill="#fdc834" d="M1594 230h10l6 4 3 5-1 8-7 11-9 9-7 10-7 11-3 2-5-1-2-2 1-12 5-19 6-15 6-9Z"/><path fill="#fdc834" d="M1893 1325h11l8 5 6 7 2 4v11l-5 8-9 4-9-1-6-4-7-7-2-4v-12l4-6 5-4Z"/><path fill="#fdc834" d="m5 1240 9 2 7 6 3 7v7l-3 6-8 8-9 11-1 116H0v-162Z"/><path fill="#fdc834" d="M1962 297h22v35h-23l-8-4-4-6-1-3v-9l4-8 6-4Z"/><path fill="#fff" d="M1348 319h14l5 3 2 2v8l-2 4 5 5 1 8-3 7-5 4-2 1h-13l-6 1-2-2v-39Z"/><path fill="#fdc834" d="M1948 1285h12l8 4 4 6 1 3v9l-3 6-6 5-6 2h-7l-9-3-5-4-3-9 1-8 4-6 3-3Z"/><path fill="#fff" d="m1492 324 5 2 2 2 1-1h9l3 3 4-3h7l4 4 2 6v18l-2 2h-8l-1-1-1-19h-2l-1 17-3 3-7-1-2-3-1-14-1-1-1 17-2 2h-8l-2-3v-24l3-5Z"/><path fill="#fdc834" d="M1372 1342h69l-2 8-4 5-5 3-4 1h-18l-15-4-14-7-7-5Z"/><path fill="#573f98" d="M924 1356h1l-1 18-5 26-1 3h-33l6-7 5-5 8-8 11-14Z"/><path fill="#fdfcfd" d="m1472 325 7 1 5 5 1 3v22l-5 2-5-1h-10l-5-4-1-2v-7l3-5-2-2v-5l7-6Z"/><path fill="#fff" d="m1430 319 6 1 2 2v14l4-2h8l5 4 3 8v8l-3 4-7-1-1-2-1-9-3-3-3 3-3 11-1 1h-7l-2-3-1-33Z"/><path fill="#fdc834" d="M429 37h9l7 3 5 6 1 3v12h-34V48l4-7Z"/><path fill="#fff" d="m0 759 3 1v227H0Z"/><path fill="#fdc834" d="M1894 443h11l7 5 4 8v8l-4 8-6 4-13 3v-35Z"/><path fill="#fdc834" d="M83 579h8v35h-7l-8-3-6-7-1-4v-8l3-6 5-5Z"/><path fill="#fff" d="M1540 326h9l5 5 1 7-3 5-1 1 3 2v7l-6 4h-8l-6-4-3-6v-11l3-6Z"/><path fill="#fff" d="M1383 326h9l5 4 1 3v7l-4 4 4 4-1 5-6 4h-7l-6-3-4-8v-9l4-8Z"/><path fill="#fff" d="M1409 325h9l6 4 1 2v7l-1 1h-5l-3-3h-4l-1 2v10l7-3 6 1v7l-4 4-3 1h-8l-5-3-3-3-2-7 1-11 4-6Z"/><path fill="#fdc834" d="M1983 387h1v37l-9-1-8-7-2-6v-7l3-7 6-5Z"/><path fill="#f9e7cb" d="M723 712h9v75l-3 9-2 4-1-3 3-17-1-65-11 1-1 1-1 66-2 6h-2l1-11 1-64 1-1Z"/><path fill="#fff" d="m1562 318 5 1 1 2 1 23v12l-6 2-5-4-2-8v-19l2-7Z"/><path fill="#f8e6ca" d="m677 718 5 1 1 66 2 8 4 7-4-1-3-5-2-5-1-11v-57l-13 2-1 51-3 3v-57Z"/><path fill="#573f98" d="m56 677 7 2 5 7 1 7-3 5-4 2h-9l-5-3-2-5 2-9 5-5Z"/><path fill="#fff" d="m0 604 3 4v113l-3-1Z"/><path fill="#fff" d="M2 1288h1v115H0v-112Z"/><path fill="#f8e5c8" d="M522 747h11l10 2v2l-17-1-5-1v21l20 2 1 1v18l-17-1-5-1v21h-1l-1-7v-13l4-4h7l11 2-1-10-2-3-4-1-13-1-2-2v-22Z"/><path fill="#f9e7cb" d="m597 728 4 1 4 7-1 3-4-6v-2l-11 2-1 5v89l2 1h8l1 2-5 1h-9V730l1-1Z"/><path fill="#573f98" d="m3 301 10 5 11 7-5 5-13 7H3Z"/><path fill="#f9e7cb" d="M415 750h2l1 3v68h-3Z"/><path fill="#fff" d="m0 1021 3 1v68H0Z"/><path fill="#fff" d="m0 521 3 1v59l-3 3Z"/><path fill="#fdc834" d="M670 1342h29l-3 5-6 3h-11l-7-4Z"/><path fill="#573f98" d="M1983 1380h1v23h-13l2-6 8-14Z"/><path fill="#fff" d="M1 360h2v52H0v-51Z"/><path fill="#f9e7cb" d="m402 717 3 1-2 2v37l3 11v17l-3 15v15l1 4-3-1v-21l3-13v-13l-3-11v-42Z"/><path fill="#fff" d="M2 87h1v48H0V90Z"/><path fill="#573f98" d="m1452 246 2 1-2 4-7 12v7l8 12 2 3v4h-2l-10-15-2-5 1-8 7-12Z"/><path fill="#fff" d="M0 446h3v41H0Z"/><path fill="#fff" d="M1 1200h2v41H0v-40Z"/><path fill="#fff" d="M0 1124h3v40l-3 1Z"/><path fill="#fff" d="m1390 311 4 1 1 4-4 5-5 3h-5v-5l7-7Z"/><path fill="#fdc834" d="m1481 215 4 1 2 3v3l-10 5-4 1-1-2 6-9Z"/><path fill="#fdc834" d="M1446 204h6l1 1-1 9-3 2-5-6v-5Z"/><path fill="#573f98" d="M1355 343h6l2 2-1 5-4 2-5-1v-7Z"/><path fill="#fff" d="m0 300 3 1v24l-3 1Z"/><path fill="#fff" d="M0 239h3v24H0Z"/><path fill="#fdc834" d="m1457 219 7 1 2 4-6 6-3-1Z"/><path fill="#fdc834" d="m1570 292 5 1 2 2-1 4-5 2-4-4 2-4Z"/><path fill="#573f98" d="M1353 327h6v3l-4 3h-3v-5Z"/><path fill="#573f98" d="M1541 345h8l-4 3-4-1Z"/><path fill="#573f98" d="M1384 345h8l-4 3-4-2Z"/><path fill="#573f98" d="M1470 346h5v2l-5 1Z"/><path fill="#573f98" d="m1543 334 3 1-1 2h-3Z"/><path fill="#573f98" d="M1387 334h2v3l-4-1Z"/></svg>